<svg xmlns="http://www.w3.org/2000/svg" viewBox="0 0 120 134" role="img" aria-label="بوابة القانون">
  <defs>
    <linearGradient id="g" x1="0" y1="0" x2="1" y2="1">
      <stop offset="0" stop-color="#F3DDA6"/><stop offset=".45" stop-color="#D4B061"/>
      <stop offset=".75" stop-color="#9C7A2C"/><stop offset="1" stop-color="#E5C98A"/>
    </linearGradient>
  </defs>
  <g fill="none" stroke="url(#g)" stroke-linecap="round" stroke-linejoin="round">
    <path stroke-width="4.5" d="M36 126V60Q36 41 48 29L60 13L72 29Q84 41 84 60V126"/>
    <path stroke-width="1.5" opacity=".75" d="M43 126V62Q43 46 52 36L60 25L68 36Q77 46 77 62V126"/>
    <path stroke-width="4" d="M12 66Q60 59 108 66"/>
    <path stroke-width="1.4" d="M13 67L5 97M13 67L22 97M107 67L98 97M107 67L115 97"/>
  </g>
  <g fill="url(#g)">
    <path d="M2 97H25Q23 107 13.5 107Q4 107 2 97Z"/><path d="M95 97H118Q116 107 106.5 107Q97 107 95 97Z"/>
    <circle cx="12" cy="66" r="2.6"/><circle cx="108" cy="66" r="2.6"/>
    <path d="M60 30L67.5 47Q68.5 55 63.5 60H56.5Q51.5 55 52.5 47Z"/>
    <rect x="57.5" y="60" width="5" height="56"/><circle cx="60" cy="63.5" r="4"/>
    <rect x="46" y="115" width="28" height="5" rx="1"/><rect x="39" y="121" width="42" height="5" rx="1"/>
  </g>
  <path d="M60 37V50" stroke="#0C1321" stroke-width="1.5" stroke-linecap="round"/><circle cx="60" cy="51.5" r="1.9" fill="#0C1321"/>
</svg>
